<?xml version="1.0" encoding="UTF-8"?><!DOCTYPE svg PUBLIC "-//W3C//DTD SVG 1.1//EN" "http://www.w3.org/Graphics/SVG/1.1/DTD/svg11.dtd"><svg xmlns="http://www.w3.org/2000/svg"><symbol id="icon-facebook" viewBox="0 0 430.113 430.114"><path d="M158.081 83.3v59.218h-43.385v72.412h43.385v215.183h89.122V214.936h59.805s5.601-34.721 8.316-72.685H247.54V92.74c0-7.4 9.717-17.354 19.321-17.354h48.557V.001h-66.021C155.878-.004 158.081 72.48 158.081 83.3z"/></symbol><symbol id="icon-instagram" viewBox="0 0 225 225"><path d="M0 0v225h225V0H0zm113 78.667c18.38 0 33.333 14.953 33.333 33.333S131.38 145.333 113 145.333 79.667 130.38 79.667 112 94.62 78.667 113 78.667zM30 26h34v22H30V26zm165 169H30v-79h19.806c2.073 33.064 29.616 59.333 63.194 59.333s61.121-26.269 63.194-59.333H195v79z"/></symbol><symbol id="icon-twitter" viewBox="0 0 430.117 430.117"><path d="M381.384 198.639c24.157-1.993 40.543-12.975 46.849-27.876-8.714 5.353-35.764 11.189-50.703 5.631-.732-3.51-1.55-6.844-2.353-9.854-11.383-41.798-50.357-75.472-91.194-71.404a173.448 173.448 0 0 1 9.996-3.691c4.495-1.61 30.868-5.901 26.715-15.21-3.5-8.188-35.722 6.188-41.789 8.067 8.009-3.012 21.254-8.193 22.673-17.396-12.27 1.683-24.315 7.484-33.622 15.919 3.36-3.617 5.909-8.025 6.45-12.769C241.68 90.963 222.563 133.113 207.092 174c-12.148-11.773-22.915-21.044-32.574-26.192-27.097-14.531-59.496-29.692-110.355-48.572-1.561 16.827 8.322 39.201 36.8 54.08-6.17-.826-17.453 1.017-26.477 3.178 3.675 19.277 15.677 35.159 48.169 42.839-14.849.98-22.523 4.359-29.478 11.642 6.763 13.407 23.266 29.186 52.953 25.947-33.006 14.226-13.458 40.571 13.399 36.642C113.713 320.887 41.479 317.409 0 277.828c108.299 147.572 343.716 87.274 378.799-54.866 26.285.224 41.737-9.105 51.318-19.39-15.144 2.57-37.094-.086-48.733-4.933z"/></symbol></svg>